<?xml version="1.0" encoding="UTF-8"?>
<svg xmlns="http://www.w3.org/2000/svg" xmlns:xlink="http://www.w3.org/1999/xlink" width="30pt" height="30pt" viewBox="0 0 440.44 321.73" version="1.1">
<defs>
<clipPath id="clip1">
  <path d="M 0 33 L 296 33 L 296 321.730469 L 0 321.730469 Z M 0 33 "/>
</clipPath>
<clipPath id="clip2">
  <path d="M 415 191 L 440.441406 191 L 440.441406 205 L 415 205 Z M 415 191 "/>
</clipPath>
</defs>
<g id="surface1">
<g clip-path="url(#clip1)" clip-rule="nonzero">
<path style=" stroke:none;fill-rule:nonzero;fill:rgb(2.69928%,3.09906%,3.09906%);fill-opacity:1;" d="M 295.332031 177.5625 C 295.332031 257.183594 229.222656 321.730469 147.664063 321.730469 C 66.113281 321.730469 0 257.183594 0 177.5625 C 0 97.941406 66.113281 33.394531 147.664063 33.394531 C 229.222656 33.394531 295.332031 97.941406 295.332031 177.5625 "/>
</g>
<path style=" stroke:none;fill-rule:nonzero;fill:rgb(92.89856%,12.5%,14.099121%);fill-opacity:1;" d="M 391.074219 202.351563 C 390.855469 203.472656 389.933594 204.238281 389.019531 204.0625 L 360.46875 198.554688 C 359.550781 198.378906 358.980469 197.324219 359.199219 196.199219 C 359.414063 195.078125 360.339844 194.308594 361.257813 194.488281 L 389.800781 199.996094 C 390.71875 200.171875 391.289063 201.226563 391.074219 202.351563 "/>
<path style=" stroke:none;fill-rule:nonzero;fill:rgb(92.89856%,12.5%,14.099121%);fill-opacity:1;" d="M 438.050781 220.871094 C 437.640625 221.9375 436.730469 222.578125 436.019531 222.308594 L 413.980469 213.78125 C 413.269531 213.511719 413.027344 212.421875 413.441406 211.351563 C 413.855469 210.285156 414.765625 209.644531 415.472656 209.917969 L 437.515625 218.441406 C 438.222656 218.714844 438.464844 219.804688 438.050781 220.871094 "/>
<path style=" stroke:none;fill-rule:nonzero;fill:rgb(92.89856%,12.5%,14.099121%);fill-opacity:1;" d="M 412.285156 251.179688 C 411.152344 251.359375 410.117188 250.742188 409.96875 249.800781 L 405.300781 220.535156 C 405.148438 219.59375 405.945313 218.683594 407.074219 218.503906 C 408.203125 218.324219 409.242188 218.941406 409.394531 219.882813 L 414.054688 249.148438 C 414.210938 250.089844 413.414063 251 412.285156 251.179688 "/>
<path style=" stroke:none;fill-rule:nonzero;fill:rgb(92.89856%,12.5%,14.099121%);fill-opacity:1;" d="M 387.054688 210.890625 C 387.679688 211.851563 387.554688 213.042969 386.773438 213.554688 L 362.445313 229.472656 C 361.664063 229.988281 360.519531 229.625 359.894531 228.667969 C 359.269531 227.710938 359.394531 226.519531 360.175781 226.007813 L 384.503906 210.085938 C 385.285156 209.574219 386.429688 209.933594 387.054688 210.890625 "/>
<path style=" stroke:none;fill-rule:nonzero;fill:rgb(92.89856%,12.5%,14.099121%);fill-opacity:1;" d="M 420.101563 166.992188 C 421.144531 167.460938 421.703125 168.484375 421.347656 169.277344 L 410.28125 193.933594 C 409.925781 194.726563 408.789063 194.992188 407.746094 194.523438 C 406.703125 194.054688 406.144531 193.03125 406.5 192.238281 L 417.566406 167.582031 C 417.921875 166.785156 419.058594 166.523438 420.101563 166.992188 "/>
<path style=" stroke:none;fill-rule:nonzero;fill:rgb(92.89856%,12.5%,14.099121%);fill-opacity:1;" d="M 397.835938 197.121094 C 396.792969 197.589844 395.578125 197.15625 395.128906 196.15625 L 381.058594 164.984375 C 380.605469 163.980469 381.085938 162.785156 382.128906 162.3125 C 383.171875 161.84375 384.382813 162.273438 384.835938 163.277344 L 398.902344 194.449219 C 399.355469 195.453125 398.878906 196.648438 397.835938 197.121094 "/>
<g clip-path="url(#clip2)" clip-rule="nonzero">
<path style=" stroke:none;fill-rule:nonzero;fill:rgb(92.89856%,12.5%,14.099121%);fill-opacity:1;" d="M 440.179688 193.0625 C 440.648438 194.238281 440.453125 195.421875 439.75 195.703125 L 417.773438 204.5 C 417.070313 204.785156 416.113281 204.0625 415.644531 202.890625 C 415.175781 201.714844 415.367188 200.535156 416.074219 200.253906 L 438.050781 191.453125 C 438.753906 191.171875 439.710938 191.890625 440.179688 193.0625 "/>
</g>
<path style=" stroke:none;fill-rule:nonzero;fill:rgb(3.09906%,3.49884%,3.49884%);fill-opacity:1;" d="M 269.675781 30.375 C 272.550781 26.25 282.328125 11.851563 286.332031 8.0625 C 305.113281 -9.71875 340.550781 2 342.664063 42.386719 C 343.386719 56.128906 343.265625 71.234375 341.050781 84.75 C 324.195313 187.667969 333.800781 248 361.332031 254.394531 C 369.410156 256.273438 383.242188 236.292969 387.449219 228.3125 C 389.710938 224.027344 398.050781 200.75 405.28125 204.089844 C 411.800781 207.75 403.933594 217.683594 401.757813 223.007813 C 399.367188 228.855469 380.886719 266.730469 367.675781 266.730469 C 341.023438 266.726563 327.800781 241.164063 322.800781 208.5 C 318.539063 180.675781 323.34375 135.847656 324.800781 127.25 C 330.34375 94.578125 332.015625 65.132813 332.332031 57.730469 C 334.050781 17.5 314.550781 8.25 300.738281 12.730469 C 294.175781 14.855469 288.242188 23.671875 277.925781 37.375 "/>
<path style=" stroke:none;fill-rule:nonzero;fill:rgb(3.09906%,3.49884%,3.49884%);fill-opacity:1;" d="M 284.410156 111.324219 C 280.195313 116.691406 272.414063 117.617188 267.027344 113.390625 L 199.039063 60.023438 C 193.652344 55.796875 192.703125 48.019531 196.917969 42.652344 L 223.402344 8.902344 C 227.617188 3.535156 235.398438 2.613281 240.785156 6.839844 L 308.773438 60.203125 C 314.160156 64.433594 315.109375 72.210938 310.894531 77.578125 "/>
<path style=" stroke:none;fill-rule:nonzero;fill:rgb(97.999573%,98.399353%,98.399353%);fill-opacity:1;" d="M 253.90625 16.90625 L 234.179688 42.078125 L 229.820313 38.667969 L 249.550781 13.488281 Z M 253.90625 16.90625 "/>
<path style=" stroke:none;fill-rule:nonzero;fill:rgb(99.598694%,99.598694%,100%);fill-opacity:1;" d="M 78.832031 204.5625 L 78.164063 252.0625 C 151.332031 236.5625 225.664063 238.394531 225.664063 238.394531 C 225.664063 238.394531 226.007813 234.816406 225.664063 228.3125 C 140 228.3125 88.882813 207.398438 78.832031 204.5625 "/>
<path style=" stroke:none;fill-rule:nonzero;fill:rgb(92.89856%,12.5%,14.099121%);fill-opacity:1;" d="M 83.664063 244.730469 C 115.835938 236.730469 192.695313 232.5625 192.695313 232.5625 C 192.695313 232.5625 151.992188 233.0625 83.613281 211.894531 "/>
<path style=" stroke:none;fill-rule:nonzero;fill:rgb(97.999573%,98.399353%,98.399353%);fill-opacity:1;" d="M 218.246094 97.410156 C 219.679688 99.621094 218.871094 102.6875 216.445313 104.257813 L 174.132813 131.636719 C 171.707031 133.203125 168.582031 132.683594 167.148438 130.472656 C 165.71875 128.261719 166.523438 125.191406 168.949219 123.625 L 211.265625 96.242188 C 213.6875 94.675781 216.8125 95.195313 218.246094 97.410156 "/>
<path style=" stroke:none;fill-rule:nonzero;fill:rgb(97.999573%,98.399353%,98.399353%);fill-opacity:1;" d="M 137.640625 129.101563 C 136.238281 131.332031 133.121094 131.894531 130.675781 130.355469 L 88.011719 103.523438 C 85.566406 101.984375 84.71875 98.929688 86.121094 96.699219 C 87.527344 94.46875 90.648438 93.90625 93.09375 95.445313 L 135.753906 122.277344 C 138.199219 123.816406 139.046875 126.871094 137.640625 129.101563 "/>
<path style=" stroke:none;fill-rule:nonzero;fill:rgb(97.999573%,97.599792%,97.599792%);fill-opacity:1;" d="M 225.664063 163.0625 C 225.664063 178.34375 213.128906 190.730469 197.664063 190.730469 C 182.203125 190.730469 169.664063 178.34375 169.664063 163.0625 C 169.664063 147.78125 182.203125 135.394531 197.664063 135.394531 C 213.128906 135.394531 225.664063 147.78125 225.664063 163.0625 "/>
<path style=" stroke:none;fill-rule:nonzero;fill:rgb(92.89856%,10.998535%,14.099121%);fill-opacity:1;" d="M 218.832031 163.0625 C 218.832031 175.214844 209.355469 185.0625 197.664063 185.0625 C 185.976563 185.0625 176.5 175.214844 176.5 163.0625 C 176.5 150.914063 185.976563 141.0625 197.664063 141.0625 C 209.355469 141.0625 218.832031 150.914063 218.832031 163.0625 "/>
<path style=" stroke:none;fill-rule:nonzero;fill:rgb(97.999573%,98.399353%,98.399353%);fill-opacity:1;" d="M 134.832031 160.394531 C 134.832031 175.675781 122.296875 188.0625 106.832031 188.0625 C 91.367188 188.0625 78.832031 175.675781 78.832031 160.394531 C 78.832031 145.117188 91.367188 132.730469 106.832031 132.730469 C 122.296875 132.730469 134.832031 145.117188 134.832031 160.394531 "/>
<path style=" stroke:none;fill-rule:nonzero;fill:rgb(92.89856%,10.998535%,14.099121%);fill-opacity:1;" d="M 128 160.394531 C 128 172.546875 118.523438 182.394531 106.832031 182.394531 C 95.144531 182.394531 85.664063 172.546875 85.664063 160.394531 C 85.664063 148.246094 95.144531 138.398438 106.832031 138.398438 C 118.523438 138.398438 128 148.246094 128 160.394531 "/>
</g>
</svg>
